<svg xmlns="https://www.w3.org/2000/svg" width="1000" height="601" viewBox="0 0 1000 601" xml:space="preserve"><g><circle fill="#fff" cx="702" cy="301.5" r="293"/><ellipse fill="#D3D3D3" cx="755.5" cy="435" rx="183.5" ry="52.5"/><path fill="#fff" d="M631.5 162c6.6-8.3 22.5-19 30.5-12s17.5 29 16 31.5-22 19.5-31 17-21-18-20-24.5 2.5-9.5 4.5-12z"/><path fill="#ccc" d="M633 172.5s3.3 3.3 8 4c4.7.7 15.3-2 16.7-6.7 1.3-4.7 4-13.3 4-13.3s6.7 1.3 9.3 6c2.7 4.7 1.3 14-6 18.7-7.3 4.7-14 8.7-22.7 7.3-8.6-1.3-11.3-4-9.3-16z"/><path fill="#1C1C1C" d="M642 185c-25.5 4.5-18.5-22.5-11.5-35.5l5.5-12s-4.5 1-6.5 4-9.5 20-9.5 29 12 19 15 19l7-4.5z"/><path fill="#1C1C1C" d="M676 159c-2-5-25-10-34-6s-13 19-12 29 27 9 35 7 13-25 11-30zm-34 26c-17-4-8-21 3-27 4.5-2.4 22 2 23 7s-9 24-26 20z"/><path d="M644 160.5c2.8 2.8 3.5 4 3 5.5s-5 3-7 3-3.5-7.5-2.5-10 5 0 6.5 1.5z"/><path fill="#fff" d="M641.5 165.8c0-1 .4-2 1.8-2s2.3 2 2.3 3-1.1 1.8-2.5 1.8c-1.5-.1-1.6-1.9-1.6-2.8z"/><path fill="#60BC2A" d="M688.3 415.4c-9.4-4.9-24.3-22.4-45.4-29.7-21.1-7.3-23.3-15.3-23.3-11.2.1 4.1-17.7 9.3-12.8 12.5 4.8 3.2 14.2 15.4 8.6 18.1-5.7 2.7-19.3 3-4.9 12.9s4.8 10.7 4.8 10.7 24.1-2.9 33.4-6.3c9.3-3.4 35.9-.6 41.7-1.5 5.8-.8-2.1-5.5-2.1-5.5z"/><path fill="#60BC2A" d="M719.1 348.3c-5.9-8.8-32.2-17.9-46.1-23.3-18-7-17.7 6.4-20 21-2.3 14.6 3.7 25.7 7 37.5s5 16.4 4.6 18.4c-.4 2.1 7.7 14.7 15.8 14.5 8.1-.2 6.4.5 6-3.3-.4-3.8 6-5.9 4.9-17.3-1.1-11.4-5.5-14.3-3.8-24.2 1.7-9.9 19.4 8.2 25.1 12.4 5.7 4.2 7.4 5 9.5-4.8 2.2-9.6.2-26-3-30.9z"/><path fill="#6DDB3A" d="M659.5 333c.9 7 1 7 6 9.5s6 3.5 12.5 4 10 1 13.5 1 3.5-1 9-1.5l8-2s-14.5-9-17.5-11-18.7-3.8-23.1-5.1c-4.4-1.4-8.9 1.1-8.4 5.1z"/><path fill="#173304" d="M731.6 366.7c-12.2-11.7-49.7-59.8-74.9-34.4-3.2 3.3 2.5 63.4 2.5 63.4s2.8-7.5 2.9-14.8c0-11.9-6.6-52.2 5.8-52.9 28.5-1.6 60.8 37.8 63 39.8-1-6.5.7-1.1.7-1.1z"/><path fill="#173304" d="M724.3 404c-11.3-10.4-26.2-39.3-31.4-24.5-5.3 14.8-1.6 36.7-1.6 36.7l-.1-2.7s-4.8 1.2-3.7 5.5c1.2 4.3-12.5 0-40.2 5.9-27.8 6-35 4.5-35 4.5s6.6-4.7-5.9-19.4c-7.8-9.2 29-9.7 2.5-20.6-8.3-3.4 11.2-8.2 10.6-14 19.4 5.5 38.4 17 38.4 17s-32.4-14-34.3-13.2c-1.9.8-16.5 2.8-13.9 7.2 2.6 4.4 8.1 1 10.4 7.2 2.3 6.3-12.2 9.2-12.6 12.4-.4 3.2 5.1 8 6.9 10.1 1.8 2.1 1.5 9.8 1.5 9.8s16.4-1.5 36.1-5.4c19.7-3.9 37.8.3 32.8-2.3-5-2.6 7.8-.5 7.8-.5s-7.6 6.3-3.9-30.3c3.7-36.5 12.4-4.1 32.7 10.4 2.9 3.3 2.9 6.2 2.9 6.2z"/><path fill="#2E7003" d="M699 193.5c13 20.5 56.5 66 44 101-9.7 27.1-29.8 52.3-47.3 61.3s-27.7 16.2-39.2 14.7c-30.1-7.9 72.9 20.2 102 10 20-7 54-51 53.5-82.5s-11-80.5-34-90-63-16-79-14.5z"/><path fill="#2A6304" d="M701.5 378.5c20.5-5 57-6 73.5-34s16.5-37.5 12.5-71.5-9-57-14-63.5c18.5 6.5 36 33 41.5 50.5s10 42.5 6 62 5 30-21.5 46-43 24.5-65 21.5l-33-11z"/><path fill="#173304" d="M742 289c8.8-26-21-72.5-36.5-93.5 5.3-.5 48.5 6.1 51.8 6.2-6.7-1.6-52.6-9.4-57.3-9.2 15.5 19.5 45.3 65 37.5 96-5.7 22.6-17.3 56-35.8 67.9 17.4-9.5 31.2-40.7 40.3-67.4zm20 89c-17.3 6.1-61.5 2-88.1-3.1 22.6 6.6 64 9.9 84.6 5.6 21-4.4 45.1-26.3 54.2-56.1-11.1 24.8-35.7 48.3-50.7 53.6zm-107-10.2c1.6 1.5 9.2 3.6 12.6 5 9.2.2.6-5.5 14.1-9-17.8 3.6-17.7 5.7-26.7 4z"/><path fill="#F7A9B9" d="M791 237.5c3.5 15.5-3.5 33.5-34 40.5s-533.7 107.2-571.7 111.8c-38 4.7-72 6-70.7 20.7s30-5.3 72-14.7c42-9.3 552-107.3 570.7-112.7 18.7-5.3 46-10.7 50.7 2l-17-47.6z"/><path fill="#7C2929" d="M477 330.7l-5.8 1.1c18.9-3.7 38.7-7.6 58.2-11.4-42.6 8.1-92.9 17.6-125.6 24.8-3.6.3-45 8.2-45.8 8.4-8.6 1.7-17.2 3.5-26 5.2l18-3.6-18 3.6c-27.7 5.5-56.7 11.2-86.5 16.7-29.9 5.8-60.5 11.1-92.2 14.1-4.4.6-9.7 1.3-15.7 2.6-5.8 1.5-13 2.5-18.9 8.2-2.7 3-3.7 8.3-.2 12 4.4 2.7 8.7 1.1 12.6.3 7.8-2.2 15.4-5.2 23.2-7.9 30.7-11.7 63.6-15.8 81.2-19.8 5.1-1 10.2-2 15.4-3-8.6 1.7-8.6 1.7-17.2 3.3 21.6-4.4 41.1-8.3 60.1-12.1-3.4.6-3.9.7-11.9 2.1l9.7-1.9c8.8-1.9 29.1-5.9 38.7-7.8-2 .5 5.5-1 12.1-2.2l-2.6.5c25.2-4.9 54.5-10.7 77-15 3.1-.6 5.5-1 6.9-1.3l21.6-4.3c-1.6.4 17.9-3.4 7.6-1.3 16.1-3.3 32.6-6.4 48-9.6 55.1-10.8 113.7-22.3 170.6-33.7l-1.4.2c19.9-4 37.4-7.7 61.7-12.5 17.4-3.1 41.5-10 48.5-11.2 10-1.6 17.4-1.9 24.3.4 1.7.7 3.3 1.5 4.6 2.9.7.7 1.3 1.4 1.7 2.3-.2.4 1.5 1-.4 1.2l-.5-1.4c-1.3-3.7-2.8-7.6-4.5-12.3 1.6 4.9-6.7-18.2-3.5-8.9 2.1 6.3 3.3 9.6 4.4 12.6.5 1.5 1.1 3 1.7 4.7.3.9.6 1.8 1 2.9l.6 1.7.3.9v.1c-1.6.6 2.2-.8 1.8-.6v-.1l-.1-.3-.3-.5.1.3c-3.3-7.1-11.6-7.8-17.9-8-6.7 0-13.3 1-19.7 2.3-12.9 3.1-25.4 6.2-38.5 8.6-25.8 5.2-51.7 10.3-77.8 15.4-34.8 7-72.5 14.3-108.7 21.4-39 7.7-81.1 15.9-114.5 22.6-8 1.6-13.7 2.6-20.6 3.9-30.7 6-69.9 13.6-104.5 20.5.7-.1 1.3-.2 1.7-.3-18.4 3.6-32.2 6.2-50.2 9.8.1 0-2.7.6-4 .9-1.6.2-28 5.5-54.9 11-27.1 4.8-53.1 15.5-56.1 16.4-1.8.7-3.6 1.3-5.5 2-4.6 1.6-9.1 3.2-13.8 4-2.2.2-4.8.5-6.4-.8-1.5-1.3-1.7-3.8-1.4-5.9 3.7-8.4 15.5-9.5 24.1-11.4 18.7-3.1 37-4.1 53.4-6.8 7.1-1.3 15.1-2.8 21.1-3.9 5.8-1 6.9-1.3 13.8-2.6 17.7-2.9 28-5.1 18.9-3.5 14.5-2.8 29.1-5.5 42-8l17.9-3.5c5.1-1 8-1.5 10.6-1.9 13.1-2.6 9.3-1.8 23-4.4 3.3-.5 34.4-6.9 38.3-7.6l-2.2.5c15.9-3.1 26.5-4.9 42-8 43.2-8.4 90.2-17.8 130.2-25.7.4-.2-8.8 1.8-9.3 1.7 23.6-4.7 47.3-9.2 71.1-13.9 4.3-.8 9.5-1.8 11.5-2.2 7.6-1.5 4.5-1 10-2.1h.8c8.1-1.7 11.9-2.3 19.5-3.8.4-.1 3.2-.7 5.9-1.2.2.1 8.4-1.7 8-1.5h.1c1.6-.3 2.8-.6 4.8-1 3.1-.7 32.2-6.9 35.4-7.6l1.5-.3c4.4-.9 6.2-1.4 3.7-.9l5.4-1.1-.6.1 5.4-1.1c1-.2 2.1-.4.6 0 3-.7 6.4-1.4 9.5-2-8.4 1.7-18.9 3.7-27.8 5.3 3.6-.8 10.2-2 14.1-2.8 4.7-.9 14.4-2.8 21.9-4.3 1.6-.3 2.8-.7 6.5-1.4 1.8-.3 4.2-.9 7.3-1.5l-10.7 2.3c.6 0 8.8-1.8 11.7-2.4 1.3-.3 8.4-2 12.6-3.6-1.8.8 3.5-1.2 5.9-2.5 2.8-1.4 4.4-2.6 3.3-1.9 1-.2-11 5.4-7.2 3.4 1.1-.3 6.6-2.9 9.2-4.9 0-.1-1.9 1.2-.2 0 3-2 5.8-4.8 7.1-6.4-.4.6-1.5 1.6-2.2 2.4 1.7-1.7-2.6 3.2-8.1 6.3-5.4 3.2-11.2 5-8.3 4-.8.3 5.6-2.1 11-5.8 5.6-3.6 9.2-9 8.3-7.7-1.8 2.3 1.2-1.7-.7.6-.6.9-1.5 1.6-2.2 2.5-3 2.8-4.5 3.6-3.4 2.7 2.6-2.2-.9 1.2-5.2 3.7s-9 4.3-6.3 3.2c-.7.3-1.5.6-2.2.8 2.3-.7 8.3-3.6 10.4-5 0-.1 2.8-1.8 4.9-3.7l.8-.6c2.1-1.9 4.6-5.1 3.4-3.7-11.6 12 7.2-8.2-4.1 3.3 4.8-4.7-1.1 2.2-7.5 5.4-.6.3-3.4 1.8-8.1 3.5-4.1 1.4-2.4.9-3.2 1.2-2.3.7-6.8 1.8-6.2 1.5-3.3.8-5.3 1.1-9.3 2-3.5.8.2 0-2.2.5-5.3 1.1-12.6 2.6-16.8 3.4-1.6.3-6.6 1.2-3 .3 8-1.6-3 .8 5.3-.9-3.6.6 7.3-1.5 8.8-2-2.7.5-8 1.6-12.5 2.5l.9-.2c-3.9.8-11.8 2.5-16.1 3.3 1-.3-.9.1 2-.5l-5.4 1.1c-.7.2-1.4.3.2 0-2.6.6-5.1 1.1-7.1 1.4-.6.1-28.9 6.1-28 5.9-3.9.8-4.9.9-8.7 1.7-.4.1 37.4-7.7 32.2-6.7-3.4.6-44.4 9.2-46.8 9.6-2.9.6-6.4 1.3-5.7 1.2-4.9 1 1.5-.4-2.1.2-.1 0 .3 0-.8.2l-3.4.6c-7.6 1.6-18.8 3.7-26.8 5.4 2.3-.5 4.9-1.2 10-2.2l.9-.1c.7-.2 5-1 4.8-1.1-4.9.9-9.1 1.8-14.2 2.9-1 .2-2.1.4-2.8.5h.1c-1.7.3-1.5.3-.9.1.1 0 .2 0 .4-.1-3.1.4-19.1 3.9-28.1 5.6-2.6.5-.2.1-3.5.8-9.1 1.7-15.4 2.9-24.9 4.8-3 .7-3.3.8.4.1l-7.2 1.4c6.5-1.5-13.5 2.5-6.3.9-2.1.4-6.4 1.2-10.4 2-.4.1-1 .3-6.1 1.3-7.1 1.3-5.4 1-11.2 2.1-1.4.2.7-.2.5-.2-9 1.9-7.9 1.4-16.4 3.1-5.3 1.1-15.8 3.2-16.1 3.3-7.3 1.7-7.3 1.6-6.6 1.4z"/><path fill="#56A822" d="M685.1 409c-1.3 5.5-1.3 8.8-4.3 12s1.6.5-3.3 6.2c-3.3 3.9-4.2 4.8-9.7 5.3s-7.5 0-11.5-.3-6 .8-5.3 3.5-.3 3.3-2 4.5-5.5 1.3-.8 2.8 3.8 1 8.5 2 5.5 2.8 4.3 5.5-3.5 3-1.5 5.5.3 2.3 5.5 0 3.3-3 8.3-4.5 5.6-2.1 10.5-4c1.9-.8 5.3-1.8 5.5-3.5s1-6.5 1.8-9.5 3.5-11 4.5-13.5 1.5-9-3.3-11.5l-7.2-.5z"/><path fill="#173304" d="M692.8 403.5c0 1.5 3.3 13.6 2 20.5-1.6 8.7.4 17.7-8 21.5-10.9 4.8-10 3-16 7s-18.5 9.8-12-.3-2.9-7.4-9-8c-5.5-.5-6.5-4.3 2.3-7 4-1.3-4.5-7.6 0-7.8 5-.2 14.4 4.5 24.2.2 5.7-2.5 4.1-10.7 6.6-15.2s1-5.5.5-12 3.5 5.5 2.5 11-6.2 10.7-4.8 15.5c.5 1.8-16.4 7.3-25.7 2.5-1.8-.9 2.5 6.3-5.8 7.5-2.5.4-2.8 3.8 3.5 3.3 6.1-.5 6.3 3 7.8 3.5l.3 8.8s13.4-6.5 19.9-8c12.3-2.8 9.8-9.5 10.3-13s3-8.5 2-12.5l-.6-17.5z"/><path fill="#6DDB3A" d="M614 217.5c32-46 120-79 175.5-54.5 60.5 26.7 93.5 49 91.5 126s-15.5 112-62 132.5-134.5 12.5-167-13-37-33-37.5-60c29.5 22 68.4 36.1 99.8 34 30.2-2 78.7-16 88.7-48.5 9.8-31.8-5-70-18-97.5-11.3-24-37-43-73-45.5-22.4-1.6-63.5 17-98 26.5z"/><path fill="#60BC2A" d="M843 221.5c21.5 42.3 12 89 10 102s-26.4 44-64 58c-44.5 16.5-110 8-137-2.5-25.2-9.8 10 35.5 17 40.5s58 10 75 11 82-16 96-26 50-47.5 50-112c0-41-30.5-87-43-101s-9-17.5-25-16.5 6 17 21 46.5z"/><path fill="#173304" d="M867.5 207.5c-27.5-44.5-96-57.9-159.5-48-48 7.5-83.5 38.5-94 55.5 27.5-13.5 43.1-19.6 89.5-18.5 21.7.5 82.5 9 91 56 11.4 62.8 13.7 89-11 110 10.7-7.9 18.6-17.9 22-30 9-32-3-72.5-16-100-11.3-24-40-38.5-76-41-22.4-1.6-63.5 4-90 18 30.5-38 97-57 151-47 65 12 113.5 48 111.5 125s-25.5 107-72 127.5-124.5 17.5-157-8-34.5-39-41.5-55.5c29.5 22 70 32.3 101.5 31.5 13.3-.3 26.8-2.6 39.2-6.7-37.9 9.1-99-2-142.2-28.8 4.5 49.5 59.5 87 130 87 153.9 0 165.1-159.6 123.5-227z"/><path fill="#60BC2A" d="M789.5 189.5c4.8-1.4 11 2.5 16 4s5 3.5 13.5 4.5 13 .5 17 1.5 10.5 5 13.5 5 6 1 4 3.5-5 5.5-9 8.5-14.5 6-20 6.5-3.5 2.5-13.5-.5-20.5-16.5-20.5-19-6-12.5-1-14z"/><path fill="#fff" d="M802.5 142c-8.7 4-19 38-11 54.5s16 20.5 37 18.5 35-24 35.5-35.5-6.5-41.5-21-43-27.5-.5-40.5 5.5z"/><path fill="#ccc" d="M789.7 179.1s6.4 13.5 12.5 16.5 22.7 6.7 26.7 4.8c4-1.9 14.8-7.1 18.3-13.7s8-12.4 8-12.4-1.1 22-9.2 29.2c-8.1 7.2-26 12.7-36.6 7.9-10.6-4.9-24.2-16.8-19.7-32.3z"/><path fill="#1C1C1C" d="M842.9 116.9c19 9 31.2 42.7 26.1 53.6-5.1 10.8-18 29.8-26.2 30.6 8.6-11.1 20.2-22.6 24.2-35.6 3.3-10.6-5.2-25.4-12.5-32.2-7.3-6.8-14.9-14.2-14.9-14.2l3.3-2.2z"/><path fill="#1C1C1C" d="M853 144.5c-11-13-47-5-58 8s-6.5 40.4 2 54c10 16 46.2 5.1 53-8 15-29 14-41 3-54zm-22 63c-19 11-40-4-40-27s14-28 25-32c9.4-3.4 31-1 37 14s-10.7 38.5-22 45z"/><path d="M834.5 177.5c4.3-2.6 8-2 10 1s1.5 11.5-4 13.5-16 5-17.5-1.5 9-11.5 11.5-13z"/><path fill="#fff" d="M836.5 182.5c0 2.2-1.5 5.5-5 6.5-2.8.8-3.5-2.3-5-5.5-.9-2 2.4-4 5.3-4 2.8 0 4.7.8 4.7 3z"/><path fill="#60BC2A" d="M822 422c11-2 51.5-11.5 74.5-10.5s32 6.5 30 12.5 15.5 18 9.5 20-33.5 0-29.5 7 16.5 15-1.5 21.5l-9.5 13s-21-17.5-28-27.5-45-24.5-50-29l4.5-7z"/><path fill="#60BC2A" d="M810 362c10-7.3 20.5-10 40-13s48 2.5 47 16.5 3.5 28.5-4 39-11 14.5-11 16.5-14 12.5-24.5 11-24.5-.5-23-4 10-6.5 14.5-17 11-12.5 11.5-22-43.5 4.5-52 7.5-11 3.5-11-6 7-24.5 12.5-28.5z"/><path fill="#6DDB3A" d="M807.5 365c5.5 1.5 19-1.5 25.5-1.5s5-3 23.5-2 19 .5 22.5-1 4-1.5 6-4l3.5-5s-24.5-5-27-5-12.5 0-19.5 1.5-19.5 6.1-22.7 6.6c-3.3.4-11.8 10.4-11.8 10.4z"/><path fill="#173304" d="M819.3 354.6c3.4-.8 5-1.1 5-1.1 15.4-1 72.6-22.4 75 11.4 2.3 33.8-14.7 53.2-14.7 53.2s-10 3-7.5 1c18-14 25.3-56.4 15.2-63.6-18.7-13.3-54.4-4.5-69.2-.4-4.2.5-13 3.3-17.7 13.3-1 .9-1.7 1.5-1.8 1.5 1.4-7.2 10.7-14.2 15.7-15.3z"/><path fill="#173304" d="M804.4 393.3c16.2-3.3 58.7-16.6 53.6-.5-5.1 16.1-22.2 33.8-22.2 33.8l.8-4.4s-15.9-.9-19.7 2.3c-3.7 3.2 30.9 13.3 50.5 33.5 19.7 20.2 28 27.5 28 27.5s-2.9-14.8 18.2-15.9c21.1-1.1-20-29.5 9.1-23.1 29.1 6.4-8.1-25 4.6-26.2-19.9-5.5-43.3-5.2-43.3-5.2s36.4 4.7 37.5 6.5c1.1 1.8 15.5 18.6 10.6 21.2-5 2.5-15.4-2.7-21.4 1.7-6 4.4 8 17.5 6.4 20.6-1.7 3.1-13 1.8-15.9 2.6-2.9.9-7.5 8-7.5 8s-12.9-10.1-27.1-24.1c-14.1-14-47.5-27.1-41.6-26.7 5.8.3 9.1 2.5 9.1 2.5s2.4 9.7 22.7-25.1-19.2-15.1-45.6-12.9c-4.9 1.3-6.8 3.9-6.8 3.9z"/><path fill="#56A822" d="M721.5 422.8c-.2.3-1.4.7-2.5 4.5-2.3 8-3.2 5.2-2.8 9.5.5 4.5-.6 6.8-3.3 9.8s-.2 4.2-6.9 5.7-5 2-10 3-11.3 5.5-6.8 8 7.3.8 10.8.3c7.7-1.1 6.6-1.7 4.4 4.3-1.3 3.5-2.8 6.3-1 7 3.5 1.5 7.5.8 9.8-5.8s6.5-7.5 9.3-10.8 6-5.5 5 1.3-3 12 0 12.8 4.8-3.5 7-7.3 2.5-5 5.8-3.8 10 3.5 8.8.3-3.5-2.5-6.5-7.8-4.5-5.3-5.3-12.8.3-12.8.8-16.3-9.7-9.1-14.2-6.8l-2.4 4.9z"/><path fill="#173304" d="M743.2 415.8c-1 5-4 22-3.5 25.5s4.2 13.6 8.8 16.9c4.8 3.4.2 5.1-6.3 5.6s-5-9.5-6.5.5-6 12-9 5 3-16-5.5-8-19.3 22.3-16.5 10.5c4.1-17.1-1.3-9.5-10.2-7.3-6.3 1.5-6.9-3.4-4.3-5.3 5.3-3.8 1.6-3.6 7.8-5.8 10-3.5 3.4-2.1 9.2-3.9 8.8-2.8 7.5-6.6 9.1-12.8 1.8-6.8 6.4-6.9 4.9-12.9s-.5-7-2-9.5 4.5 2.5 5 6.5.6 6.2-4.7 12.7c-3.5 4.3-2.6 7.3-3.6 9.8s2.1 3.9-9.3 8c0 0-19.7 8.7-15.2 10.7s13-4.5 15.5-1-.3 13.7 2.2 9.1c2.3-4.3 3-5.8 8.5-9.3s12-7 11-2 1.5 18.5 4.5 7.5l6.5-6s7.5 3 6.5-.5-10-12.5-10-18.5.5-15.5 3-20l4.1-5.5z"/><path fill="#498E1C" d="M824.6 256.5c4.2 12 9.6 71.4 9 78 2.3-.3 41.4-8.2 52.8-19.2-7.8-25.8-22.8-63-22.8-63l-39 4.2z"/><path fill="#fff" stroke="#353535" stroke-width="2" d="M818 253.5c21.6-3 35.8 0 52-8.4 6 27.6 19.1 58.5 28.7 65.1-12.6 2.4-48.6 13.8-60.3 17.7-3-19.9-9-58.2-20.4-74.4z"/><path fill="#B5B5B5" d="M838.4 327.8s43.2-22.4 49.2-30.4c4 7.9 6.8 10.8 6.8 10.8s-25.6 13.6-56 19.6z"/><path fill="#fff" stroke="#353535" stroke-width="2" d="M838.4 327.8c15-4.8 49.2-16.5 61.8-29.7 3.3 4.8 2.1 10.5-.3 12.9-8.4 4.2-31.5 10.2-61.5 16.8z"/><g fill="#1E1E1E"><path d="M852.8 300.7c-.2.4-.6.8-1.1 1.2-.5.4-1 .7-1.5.8-.8.2-1.3-.1-1.5-.9-.1-.4-.3-1.1-.5-2.1l-.5-2.1c-2.3 1.4-4.2 2.3-5.6 2.6l-.5.1c-.4.2-.6.1-.8-.2-.3-.6-.3-2 .1-4.3.4-2.6.8-5.2 1.4-7.7.5-2.5.9-4 1.2-4.7.8-2 1.9-3.2 3.4-3.6.5-.1.7 0 .8.4l5.1 20.5zm-5.8-5.4l-1.4-5.5c-.3.3-.7 1.4-1.1 3.3l-.7 3.7.3-.1c.9-.3 1.9-.8 2.9-1.4zM859.2 300.2c-1.1.3-2.3-.3-3.6-1.7-.7-.7-1.2-1.6-1.7-2.6-1.5-3-2.2-6.3-2.1-10 .1-2.3.5-4.3 1.3-6 .6-1.2 1.4-1.9 2.3-2.2 1.2-.3 2.4.1 3.7 1.2 1 .8 1.8 1.9 2.4 3.1.5 1 1 2.3 1.3 3.6 1.2 4.5.7 8.6-1.3 12.4-.7 1.2-1.4 2-2.3 2.2zm.4-9.6c-.3-1.4-1-3.2-1.8-5.3-.4-.9-.8-1.7-1.1-2.3-.7-1.3-1.2-1.9-1.6-1.7-.6.2-.8 1.3-.6 3.5.3 2.8 1.1 5.6 2.2 8.3.2.4.3.7.5 1 .8 1.6 1.5 2.2 2.2 2.1.4-.1.6-.6.7-1.5.1-.6.1-1.2 0-1.8-.1-.5-.2-1.2-.5-2.3zM877.8 293.9c-.2.4-.6.8-1.1 1.2-.5.4-1 .7-1.5.8-.8.2-1.3-.1-1.5-.9-.1-.4-.3-1.1-.5-2.1l-.5-2.1c-2.3 1.4-4.2 2.3-5.6 2.6l-.5.1c-.4.2-.6.1-.8-.2-.3-.6-.3-2 .1-4.3.4-2.6.8-5.2 1.4-7.7.5-2.5.9-4 1.2-4.7.8-2 1.9-3.2 3.4-3.6.5-.1.7 0 .8.4l5.1 20.5zm-5.9-5.3l-1.4-5.5c-.3.3-.7 1.4-1.1 3.3l-.7 3.7.3-.1c.9-.4 1.9-.8 2.9-1.4z"/></g><path d="M25.8 420.3c.6-2.6 1.3-2.4 5.4-3.4 4.1-1.1 6.2 1.9 6.2 3.2 0 1.3.6 4.9-2.1 5.8-2.8.9-6.2 2.6-7.5 1.3-1.3-1.4-2.6-4.4-2-6.9z"/><path fill="#fff" d="M38.3 413.8c1.3-3.2 4.7-8.8 7.5-9.2 2.8-.4 9.4.9 5.4 4.1-4.1 3.2-6 2.8-12.9 5.1z"/><path fill="#1A171B" d="M36.1 412.6c1.4-3.3 4.6-8.9 7.9-9.5.4-.1.8-.1 1.3-.1 1.2 0 2.6.2 3.8.6 1.1.4 2.2 1 2.2 2.2 0 .8-.5 1.5-1.5 2.3-4.2 3.3-6.2 2.9-13 5.2l-1 .4.3-1.1zm.9.3l-.5-.2.5.2zm8.3-8.9c-.4 0-.8 0-1.1.1-2.1.2-5.2 4.7-6.7 7.9 6.1-2 7.9-1.7 11.7-4.7.9-.7 1.1-1.2 1.1-1.5 0-.4-.5-.9-1.5-1.2-1.1-.5-2.4-.6-3.5-.6z"/><path fill="#fff" d="M18.4 422.7c-3.6-4.7-9.9-10.5-11.4-5.4s-.9 9.2.6 10.3c1.5 1.1 6.2 1.3 7.7-.2 1.6-1.5 1.6-3.2 3.1-4.7z"/><path fill="#1A171B" d="M10.8 424.5c-1.1-.9-1.7-2.7-1.7-5.2 0-1.6.3-3.6.9-5.6.4-1.6 1.5-2.4 2.7-2.4 3 .1 6.9 4.1 9.6 7.6l-.4.3.4-.3.3.3-.3.3c-1.4 1.3-1.4 3-3 4.7-1 .9-2.6 1.2-4.2 1.2-1.8.1-3.4-.2-4.3-.9zm7.6-.9c1.3-1.2 1.4-2.8 2.7-4.4-2.6-3.3-6.5-6.9-8.5-6.8-.8 0-1.3.3-1.7 1.7-.6 2-.8 3.8-.8 5.4 0 2.3.6 3.9 1.3 4.4.6.4 2.1.8 3.6.8 1.4-.2 2.9-.6 3.4-1.1z"/><path fill="#fff" stroke="#1A171B" d="M57 356.3c0-12.8-10.4-23.3-23.3-23.3s-23.3 10.4-23.3 23.3c0 10.4 6.8 19.2 16.3 22.2l5.2 10.1 4.8-9.2c11.5-1.6 20.3-11.3 20.3-23.1z"/><path d="M16.2 348.2h1.4v6.8c.2-.6.6-1.1 1-1.4.4-.3.9-.6 1.5-.6 1 0 2.7.9 2.7 4.7v6.5h-1.4v-6.2c0-1.8-.5-3.3-1.8-3.3-.9 0-1.6.9-1.9 2-.1.3-.1.6-.1 1v6.6h-1.4v-16.1zM26.8 350.2v3.2h2v1.5h-2v5.9c0 1.4.3 2.1 1.1 2.1.4 0 .6-.1.8-.1l.1 1.5c-.3.2-.7.3-1.3.3-.7 0-1.2-.3-1.5-.8-.4-.6-.5-1.6-.5-2.9v-6h-1.2v-1.5h1.2v-2.6l1.3-.6zM30.4 356.3c0-1.1 0-2.1-.1-3h1.2l.1 1.8c.4-1 1.2-2 2.5-2 1.1 0 1.9.9 2.2 2.2.2-.6.5-1.1.9-1.4.5-.5 1-.8 1.7-.8 1 0 2.6 1 2.6 4.8v6.5h-1.4v-6.2c0-2.1-.5-3.4-1.7-3.4-.8 0-1.4.8-1.7 1.8-.1.3-.1.6-.1 1v6.8h-1.4v-6.6c0-1.7-.5-3-1.6-3-.9 0-1.5 1-1.8 2-.1.3-.1.6-.1 1v6.6h-1.4v-8.1zM43.9 348.2h1.4v16.1h-1.4v-16.1zM48.8 360v-.6c-.1-1.2.2-2.6 1-3.9.7-1.2 1.1-2.1 1.1-3.1 0-1.2-.5-1.9-1.5-2-.6 0-1.2.3-1.6.7l-.4-1.4c.5-.5 1.5-.9 2.3-.9 1.9 0 2.7 1.6 2.7 3.3 0 1.5-.6 2.7-1.4 3.9-.7 1.2-1 2.2-.9 3.3v.6h-1.3zm-.4 3.2c0-.8.4-1.4 1-1.4s1 .6 1 1.4c0 .8-.4 1.4-1 1.4s-1-.6-1-1.4z"/></g></svg>
