<svg xmlns="http://www.w3.org/2000/svg" xmlns:xlink="http://www.w3.org/1999/xlink" viewBox="0 0 651 1192" xml:space="preserve"><path id="pied_gauche" fill="#1C1C1C" d="M83.4,1126.2c-7.4,4-25.9,15.5-37.1,26.2c-8.5,8.1-20.4,35.1-10.9,38.2c8.5,2.8,18.7-3.5,40.5-20.7c21.1-16.7,23.9-39.9,23.9-39.9S90.7,1122.2,83.4,1126.2z"/><path id="pied_droit" fill="#1C1C1C" d="M368.9,1108c0,0-1.7,9.7-0.7,16.7s72.4,16,81.4,10s1.1-14.8-69.9-28.8L368.9,1108z"/><path id="jean" fill="#1C1C1C" d="M109.1,711.3c-4.6,29-63.5,19.6-12.8,95.2C82.6,926.4,75,1064.6,83.2,1136l16.5-6c0,0-21.5-365.5,141.2-368.5c92.8-1.7,128,346.5,128,346.5l10.8,1.5c0,0-18.2-253.4-50.9-405.7S109.1,711.3,109.1,711.3z"/><path id="ombre" d="M327.3,697.1c-36.6-140.9-218.1,14.2-218.1,14.2c-0.4,2.7-1.3,5.1-2.6,7.2C253.1,694.3,296.2,692,327.3,697.1z"/><path id="bras_droit" fill="#FCE0C0" d="M10.2,429c-8.6,64.2-7,116.4-0.7,158.5c14.6,97.6,78.1,156,78.1,156l20.2-19.1c0,0-55.2-40.8-68.7-153.3c-4.9-40.8-10.6-74.7,2.8-134.6C66.8,325.4,10.2,429,10.2,429z"/><path id="ombre_5_" fill="#E2BC9A" d="M37.4,460.3c1.2-7.5,2.7-15.4,4.6-23.8c1.7-7.4,2.9-13.8,3.9-19.4l-26.5-3.7c-5.3,8.5-9.2,15.7-9.2,15.7c-1.2,8.8-2.2,17.4-3,25.8C17.5,457,27.9,458.8,37.4,460.3z"/><path id="bras_gauche" fill="#FCE0C0" d="M366,326.8c188,89.7,171.5-26.9,175.9-74.3c-18,7.2-53.9-12-40.7-40.7c10.4-22.7,26.9-4.4,22.7,1.2c-13.2,18,15.6,44.3,39.5,8.4c23.9-35.9-17.2-65.5-24.8-40.3c-6.3,21-31.7,15-22.8-9.1	c11.1-29.8,65.5-21.3,72.6,29c16.7-23.6,15.8-36.4,18-44.3c4.5-16.3,19.4-11.1,17.1,3.9c-2.7,17.3-8.8,35.9-28.7,51.9c22.4,0,29.5-11.1,36.7-19.9c7.2-8.8,27.9-2.4,13.6,12c-8.7,8.7-25.5,23.9-56.7,23.9c0,0-4,10.4,28.7,6.1c24.2-3.2,14.5,17.1-5.4,14.7c-21.4-1.6-28.7-1.1-40,3.2C562.8,273.3,595,463,366,357.3V326.8z"/><path id="shirt_2_" fill="#F9F9F9" d="M145.6,230.8c-19.4,0.7-72.1,32.2-86.2,40.6C29.4,289.4-3,414.7,0.2,421c8.6,17.1,73.5,17.6,73.5,17.6s4.6,184.9,26.3,275.7c160.9-26.8,202.6-28.5,234.8-22.5c-24.2-129.8-38.2-248.9-38.2-293.9c22.5,12.6,42.1,11.2,57.6,17.1c9.3,3.6,20.9-80.4,19.8-96.5c-58.8-23.5-116.1-73.3-116.1-73.3S165,230.2,145.6,230.8z"/><path id="ombre_2_" fill="#DBDBDB" d="M73.7,438.6c2.6-0.1,10.8-0.7,12-1C84.3,449.3,75,474.9,75,474.9L73.7,438.6z"/><path id="ombre_1_" fill="#DBDBDB" d="M296.6,397.9c0,0-0.3-4.3,0-9.5c19.1,9.2,35.4,14.2,62.2,22c-0.9,1.9-2.5,5.2-4.7,4.6C335,408.3,320.3,410.9,296.6,397.9z"/><path id="space_invader" fill="#666666" d="M129,484.7l-4.7-47.8l14-0.3l-1.6-15.6l13.9-0.3l-1.6-15.4l13.8-0.2l-1.7-15.2l13.6-0.2l1.8,15.2l40.8-0.7l-1.9-15.1l13.5-0.2l2,15.1l13.5-0.2l2.1,15.2l13.5-0.2l2.2,15.3l13.5-0.3l6.8,46.8l-13.7,0.4l-4.4-31.4l-13.6,0.3l4.3,31.5l-13.8,0.4l-2.1-15.8l-69.3,1.7l1.8,16l-14.1,0.4l-3.4-31.9l-14,0.3l3.3,32L129,484.7z M147.3,390.1l-1.6-15.1l13.6-0.2l1.7,15.1L147.3,390.1z M179.9,435.8l-1.8-15.5l-13.8,0.3l1.7,15.5L179.9,435.8z M173.2,499.8l-1.8-16.2l28-0.7l1.9,16.1L173.2,499.8z M215.3,498.5l-2-16.1l27.7-0.7l2.1,16L215.3,498.5z M234.7,434.7l-2-15.4l-13.6,0.3l2,15.4L234.7,434.7z M228.7,388.9l-2-15l13.3-0.2l2,14.9L228.7,388.9z"/><path id="oreille__x2F__cou_1_" fill="#FCE0C0" d="M200.7,216.9c-32.5-7.3-45.3-7.7-54.1-15.8c-9.4-8.6-7.8-72.9-7.8-72.9s-1.7-15.5-19.9-14c0,0,0,0,0-0.1c0,0.1-2.6,1-3.8,2.1c-6.1,5.7-5.3,36.2,2.2,38.7c5.1,1.8,9.8-0.8,9.8-0.8s5.5,25.8,5.5,42.3c0,16.5,1.7,50.1,1.7,50.1s7.2,33.1,52.8,55c25.8-16.2,16.6-45.2,16.6-45.2L200.7,216.9z"/><path id="ombre_4_" fill="#E2BC9A" d="M185.3,300.7c0.6,0.3,1.1,0.6,1.7,0.8c20.9-13.2,18.8-34.7,17.3-42.4C203.6,276.3,199.2,290.6,185.3,300.7z"/><path id="ombre_3_" fill="#E2BC9A" d="M202.1,235.3l-1.4-18.3c-32.5-7.3-45.3-7.7-54.1-15.8c-0.2-0.2-0.4-0.4-0.6-0.6c1.3,6,3.3,10.8,6.2,13.8c6.7,7,22.6,10.8,28,13.2C184.6,229.5,196.1,233.7,202.1,235.3z"/><path id="cheveux" fill="#634C3D" d="M119.9,99.9c1.5-35.3,6.7-49.4,6.7-49.4c-0.8-4.7-3.6-9.6-3.6-9.6l7.9-0.6l7.8-6.7c0,0-6.2,9.4,1.6,6.7c23.7-8,25.5-12.5,50.9-21.9c14.4-5.4,30.7-15.8,39.6-18.2c6.6-1.8,17,16.7,19.4,21.4c1.5,2.9,6.9,8.4,11.7,27.2c3,11.7,2,136.2-1.6,150.2c-0.5,2-1,3.5-1.5,4.6c-1.9,3.9-7.6,27.2-15.4,27.2c-13.2,0-29.1-8.7-41.3-11.6c-37.6-8.8-45.9-9.3-55.3-17.9c-9.4-8.6-7.8-72.9-7.8-72.9s-1.7-15.5-19.9-14C118.9,114.3,119.8,103.1,119.9,99.9z"/><path id="visage" fill="#FCE0C0" d="M268.9,101.5c-1.4-24.4-4.2-41.1-7.2-52.8c-26.6-21.7-69.1-4.4-88.6,5.7c-19.6,10.2-20.3,36.2-20.3,57.3c0,21.2-2.4,58,0,66.7c2.4,8.6,3.8,12.5,23.5,18c19.6,5.5,39.9,9.4,48.5,9.4c8.6,0,16.9-0.6,23.6-3.9c8.8-4.4,11.7-2.9,11.7-2.9l0,0C263.8,185,271.7,148.1,268.9,101.5z"/></svg>
