<svg xmlns="http://www.w3.org/2000/svg" width="425" height="393.4" viewBox="0 0 425 393.4" xml:space="preserve"><linearGradient id="a" gradientUnits="userSpaceOnUse" x1="453.245" y1="-175.426" x2="504.928" y2="-175.426" gradientTransform="matrix(1 0 0 -1 -287.6 -16.619)"><stop offset="0" stop-color="#258800"/><stop offset=".948" stop-color="#1E8200"/><stop offset="1" stop-color="#1D8200"/></linearGradient><path fill="url(#a)" d="M167.2 129.7c1.2 8.8 49.1 19 50.1 27.8v30.3c-1-8.8-48.9-19-50.1-27.8-1.4-4.5-2.6-19.2 0-30.3z"/><linearGradient id="b" gradientUnits="userSpaceOnUse" x1="375.963" y1="-228.454" x2="429.404" y2="-228.454" gradientTransform="matrix(1 0 0 -1 -287.6 -16.619)"><stop offset="0" stop-color="#258800"/><stop offset=".874" stop-color="#1E8200"/><stop offset="1" stop-color="#1C8100"/></linearGradient><path fill="url(#b)" d="M88.4 240.1c0-7.4 51.2-77.2 51.5-86.9 4.2 9.7.5 21.5 0 30.3-.2 9.6-51.5 79.4-51.5 86.9v-30.3z"/><linearGradient id="c" gradientUnits="userSpaceOnUse" x1="500.91" y1="-106.492" x2="375.072" y2="-106.492" gradientTransform="matrix(1 0 0 -1 -287.6 -16.619)"><stop offset="0" stop-color="#0A2A00"/><stop offset=".123" stop-color="#0D3F00"/><stop offset=".291" stop-color="#0F5500"/><stop offset=".476" stop-color="#116400"/><stop offset=".691" stop-color="#136D00"/><stop offset="1" stop-color="#137000"/></linearGradient><path fill="url(#c)" d="M214.6 47.7c-2.5-8.4-51.9-25.2-57.9-22.8-9.4 3.8-68.2 86.4-68.7 99.7v30.4c.5-13.3 59.3-95.9 68.7-99.7 5.9-2.4 55.4 14.3 57.9 22.8v-30.4z"/><linearGradient id="d" gradientUnits="userSpaceOnUse" x1="481.126" y1="-248.385" x2="556.196" y2="-248.385" gradientTransform="matrix(1 0 0 -1 -287.6 -16.619)"><stop offset="0" stop-color="#44C300"/><stop offset=".351" stop-color="#44BD00"/><stop offset=".798" stop-color="#43AE00"/><stop offset="1" stop-color="#43A400"/></linearGradient><path fill="url(#d)" d="M193.5 318c-.3-26 73.5-134.8 73.3-142.2 1.3-8.5 3.1-16.5 0-30.3.1 7.4-73.6 116.2-73.3 142.2v30.3z"/><linearGradient id="e" gradientUnits="userSpaceOnUse" x1="615.148" y1="-278.497" x2="571.417" y2="-278.497" gradientTransform="matrix(1 0 0 -1 -287.6 -16.619)"><stop offset="0" stop-color="#1A5900"/><stop offset=".038" stop-color="#206400"/><stop offset=".14" stop-color="#2D7B00"/><stop offset=".258" stop-color="#378D00"/><stop offset=".399" stop-color="#3E9A00"/><stop offset=".585" stop-color="#42A100"/><stop offset="1" stop-color="#43A300"/></linearGradient><path fill="url(#e)" d="M287.8 235.9c1.4 5.8 38.4 14.5 40.1 21.7v30.3c-1.7-7.2-38.7-15.9-40.1-21.7-1.3-6.9-4.2-14.3 0-30.3z"/><linearGradient id="f" gradientUnits="userSpaceOnUse" x1="639.243" y1="-121.904" x2="503.588" y2="-121.904" gradientTransform="matrix(1 0 0 -1 -287.6 -16.619)"><stop offset="0" stop-color="#1F4A00"/><stop offset=".081" stop-color="#296400"/><stop offset=".178" stop-color="#337B00"/><stop offset=".291" stop-color="#3A8D00"/><stop offset=".425" stop-color="#3F9A00"/><stop offset=".604" stop-color="#42A100"/><stop offset="1" stop-color="#43A300"/></linearGradient><path fill="url(#f)" d="M218.7 149.5c-1.4-8.7 24.9-54.2 34.4-58 5.6-2.2 99.6 36.5 100 44v-30.3c-.3-7.5-94.4-46.2-100-44-9.4 3.8-35.8 49.3-34.4 58v30.3z"/><linearGradient id="g" gradientUnits="userSpaceOnUse" x1="302.828" y1="-264.912" x2="704.056" y2="-183.606" gradientTransform="matrix(1 0 0 -1 -287.6 -16.619)"><stop offset=".005" stop-color="#0F6900"/><stop offset=".51" stop-color="#30A400"/><stop offset=".517" stop-color="#3AA90B"/><stop offset=".546" stop-color="#5DBB34"/><stop offset=".574" stop-color="#79C955"/><stop offset=".601" stop-color="#8DD36C"/><stop offset=".627" stop-color="#99D97A"/><stop offset=".648" stop-color="#9DDB7F"/><stop offset=".666" stop-color="#9ADA7A"/><stop offset=".686" stop-color="#90D86D"/><stop offset=".707" stop-color="#80D456"/><stop offset=".729" stop-color="#6ACF36"/><stop offset=".751" stop-color="#4DC80E"/><stop offset=".757" stop-color="#43C600"/><stop offset="1" stop-color="#55E500"/></linearGradient><path fill="url(#g)" d="M373.8 81c7.9 3.3 14.6 6.8 20.3 10.7-5.8-4-12.5-7.6-20.3-10.7zm45.4 55.3c-.7-12.7-5-24.1-13.2-33.8 11.3 13.9 12.1 31.5 2.7 55-15.1 37.8-53.9 124.8-67.1 156.9-13.2 32.1-39.7 52-85.1 34-54.8-21.7-179.3-79.7-209.8-93.6-28.9-13.1-47.3-45.7-27.9-82.8-9.4 17.9-11.7 36.1-11.9 56.9-.1 10.8-1.8 35.3 34.7 53.5 31.8 15.9 170.6 78.5 217.7 97.1 35 13.8 71-2 84.7-35.3 13.7-33.4 53.9-123.6 69.6-162.8 8.9-22.3 6-38.2 5.6-45.1zm-395.2 26.9c27.4-40.6 87.9-126.7 87.9-126.7s-60.6 86-87.9 126.7z"/><linearGradient id="h" gradientUnits="userSpaceOnUse" x1="369.895" y1="-97.486" x2="591.228" y2="-246.529" gradientTransform="matrix(1 0 0 -1 -287.6 -16.619)"><stop offset="0" stop-color="#137700"/><stop offset=".054" stop-color="#1C8200"/><stop offset=".279" stop-color="#3DAD00"/><stop offset=".482" stop-color="#5c0"/><stop offset=".654" stop-color="#64DF00"/><stop offset=".773" stop-color="#69E600"/><stop offset=".905" stop-color="#6CEA00"/><stop offset="1" stop-color="#72F200"/></linearGradient><path fill="url(#h)" d="M373.8 81c-38.8-16.1-136.1-54.8-172-69-35.9-14.2-66.2-12.3-89.8 24.6 0 0-60.5 86-87.9 126.7-27.4 40.6-8.5 77.5 22.7 91.7 31.2 14.2 164.5 75.6 209.8 93.6 45.4 18 71.8-1.9 85.1-34 13.2-32.1 52-119.1 67.1-156.9 15.1-38 3.7-60.7-35-76.7zm-223 188.8c-6.8 4-62.5-22.3-62.5-29.8 0-7.4 51.2-77.2 51.5-86.9.2-9.6-52.1-20.1-51.8-28.6.5-13.3 59.3-95.9 68.7-99.7 5.9-2.4 55.4 14.3 57.9 22.8 2.5 8.4-48.6 73.2-47.4 82 1.2 8.8 49.1 19 50.1 27.8 1.5 13-57.1 106.9-66.5 112.4zm137-33.9c1.4 5.8 38.4 14.5 40.1 21.7 2.2 9.3-27.1 67.8-36.9 73-5.6 2.9-97.3-35.5-97.4-42.8-.3-26 73.5-134.8 73.3-142.2-.1-7.4-47.1-19.4-48.2-26.3-1.4-8.7 24.9-54.2 34.4-58 5.6-2.2 99.6 36.5 100 44 1 24.6-66.6 124.7-65.3 130.6z"/><linearGradient id="i" gradientUnits="userSpaceOnUse" x1="309.416" y1="-270.015" x2="703.699" y2="-270.015" gradientTransform="matrix(1 0 0 -1 -287.6 -16.619)"><stop offset="0" stop-color="#136F00"/><stop offset=".062" stop-color="#2F801D"/><stop offset=".207" stop-color="#6AA35C"/><stop offset=".346" stop-color="#9BC191"/><stop offset=".474" stop-color="#C2D8BA"/><stop offset=".591" stop-color="#DDE8D7"/><stop offset=".691" stop-color="#EEF2E9"/><stop offset=".763" stop-color="#F4F6EF"/><stop offset=".864" stop-color="#B2EF8B"/><stop offset="1" stop-color="#5BE609"/></linearGradient><path fill="url(#i)" d="M411.8 148.7c-.9 2.8-1.9 5.8-3.1 8.8-15.1 37.8-53.9 124.8-67.1 156.9-13.2 32.1-39.7 52-85.1 34-45.4-18-178.7-79.4-209.8-93.6-7.8-3.6-14.9-8.6-20.7-14.7l-4.2 1c6.2 7.1 14.1 13 23.3 17.2 4.6 2.1 11.6 5.3 20.1 9.2 49.1 22.4 151.2 69.1 189.9 84.5 11.8 4.7 23 7.1 33.1 7.1 25.6 0 45.3-14.9 56.9-43.2 5.6-13.7 16.1-37.8 27.1-63.2 14.7-33.8 31.3-72.1 40-93.7 1.5-3.9 2.8-7.6 3.8-11.2l-4.2.9z"/><linearGradient id="j" gradientUnits="userSpaceOnUse" x1="503.815" y1="-101.088" x2="639.057" y2="-101.088" gradientTransform="matrix(1 0 0 -1 -287.6 -16.619)"><stop offset="0" stop-color="#56C70A"/><stop offset=".032" stop-color="#5DCA15"/><stop offset=".279" stop-color="#94DD62"/><stop offset=".393" stop-color="#AAE581"/><stop offset=".458" stop-color="#A2E670"/><stop offset=".618" stop-color="#91E94A"/><stop offset=".767" stop-color="#84EB2F"/><stop offset=".899" stop-color="#7DEC1F"/><stop offset="1" stop-color="#7AEC19"/></linearGradient><path fill="url(#j)" d="M220.4 111.3c5.9-15.9 24.9-47 32.6-50.1 4.6-1.8 70 24.4 92.4 37.7l6-.6c-5.7-4.1-17.7-10.6-43-21.4-15.8-6.8-47.5-19.6-54.8-19.6-.8 0-1.5.1-2.1.4-7.4 2.9-18.6 21.1-23.1 28.8-3.2 5.5-9.5 16.8-12.3 25.3l4.3-.5z"/><linearGradient id="k" gradientUnits="userSpaceOnUse" x1="393.141" y1="-69.289" x2="502.928" y2="-69.289" gradientTransform="matrix(1 0 0 -1 -287.6 -16.619)"><stop offset="0" stop-color="#1F8700"/><stop offset=".322" stop-color="#54A43A"/><stop offset=".516" stop-color="#70B459"/><stop offset=".517" stop-color="#70B459"/><stop offset=".66" stop-color="#5AB233"/><stop offset=".793" stop-color="#4BB018"/><stop offset=".91" stop-color="#41AF08"/><stop offset="1" stop-color="#3EAF02"/></linearGradient><path fill="url(#k)" d="M111.7 82.1c17.7-26.3 39.7-54.9 45.1-57.1 5.1-2.1 42.8 10.2 54.5 19l4.1-1.6c-3.1-2.9-9.8-7.1-24.3-12.6-11.1-4.2-25.9-8.8-32.5-8.8-1.3 0-2.3.2-3.2.5-8 3.3-34.2 40.3-39.4 47.6-2.7 3.9-6.5 9.3-10.4 15.3l6.1-2.3z"/><linearGradient id="l" gradientUnits="userSpaceOnUse" x1="522.24" y1="-13.969" x2="658.444" y2="-202.061" gradientTransform="matrix(1 0 0 -1 -287.6 -16.619)"><stop offset="0" stop-color="#4CB80F"/><stop offset=".267" stop-color="#6CD027"/><stop offset=".553" stop-color="#87E53C"/><stop offset=".806" stop-color="#97F249"/><stop offset="1" stop-color="#9DF64D"/></linearGradient><path fill="url(#l)" d="M372.3 84.5c-31.6-13.1-101.6-41.1-145.6-58.5 9.9 9.6 19.1 20.2 27.8 31.4 8.5.8 38.8 13 54 19.6 47.9 20.6 48.2 25.5 48.3 28.1.6 13.3-14.6 42.3-35 77.7 13.1 35 22.7 69.7 29.1 100.4 4.4-10.3 9.4-21.7 14.5-33.4 14.7-33.7 31.3-72 39.9-93.5 14-35.5 4.5-56.3-33-71.8z"/></svg>
