<svg style="position: absolute; width: 0; height: 0; overflow: hidden;" version="1.1" xmlns="http://www.w3.org/2000/svg" xmlns:xlink="http://www.w3.org/1999/xlink">
<defs>
<symbol id="icon-home" viewBox="0 0 40 40">
<title>home</title>
<path d="M29 40h-6c-0.552 0-1-0.448-1-1v-7h-4v7c0 0.552-0.448 1-1 1h-6c-1.654 0-3-1.346-3-3v-12.246l-2.258 2.496c-0.369 0.408-0.998 0.441-1.408 0.074l-4-3.579c-0.198-0.177-0.318-0.427-0.332-0.692s0.079-0.526 0.257-0.724l17.658-19.517c0.549-0.607 1.289-0.941 2.083-0.941s1.534 0.334 2.083 0.941l17.658 19.517c0.179 0.197 0.271 0.458 0.257 0.724s-0.133 0.515-0.332 0.693l-4 3.579c-0.41 0.367-1.039 0.334-1.408-0.074l-2.258-2.496-0 12.246c0 1.654-1.346 3-3 3zM24 38h5c0.551 0 1-0.449 1-1l0-14.842c0-0.414 0.255-0.784 0.641-0.933s0.824-0.044 1.101 0.262l3.333 3.684 2.509-2.245-16.984-18.771c-0.165-0.182-0.378-0.283-0.6-0.283s-0.435 0.1-0.6 0.283l-16.984 18.771 2.509 2.245 3.333-3.684c0.277-0.307 0.715-0.411 1.101-0.262s0.641 0.52 0.641 0.933v14.842c0 0.551 0.449 1 1 1h5v-7c0-0.552 0.448-1 1-1h6c0.552 0 1 0.448 1 1v7z"/>
</symbol>
<symbol id="icon-heart" viewBox="0 0 40 40">
<title>heart</title>
<path d="M19 38c-0.167 0-0.335-0.042-0.486-0.126-0.188-0.104-4.652-2.602-9.184-6.694-2.681-2.421-4.823-4.897-6.365-7.36-1.967-3.142-2.965-6.278-2.965-9.32 0-5.79 4.71-10.5 10.5-10.5 1.96 0 4.041 0.735 5.861 2.068 1.064 0.78 1.97 1.72 2.639 2.719 0.668-0.999 1.574-1.939 2.639-2.719 1.82-1.334 3.901-2.068 5.861-2.068 5.79 0 10.5 4.71 10.5 10.5 0 3.042-0.998 6.177-2.965 9.32-1.542 2.463-3.684 4.939-6.365 7.36-4.533 4.092-8.997 6.59-9.184 6.694-0.151 0.084-0.318 0.126-0.486 0.126zM10.5 6c-4.687 0-8.5 3.813-8.5 8.5 0 6.079 4.699 11.605 8.642 15.169 3.521 3.184 7.087 5.416 8.358 6.174 1.271-0.757 4.838-2.99 8.358-6.174 3.942-3.565 8.642-9.090 8.642-15.169 0-4.687-3.813-8.5-8.5-8.5-3.406 0-6.713 2.802-7.551 5.316-0.136 0.408-0.518 0.684-0.949 0.684s-0.813-0.275-0.949-0.684c-0.838-2.514-4.146-5.316-7.551-5.316z"/>
</symbol>
<symbol id="icon-paper-plane" viewBox="0 0 40 40">
<title>paper-plane</title>
<path d="M39.666 2.254c-0.288-0.257-0.698-0.326-1.054-0.176l-38 16c-0.384 0.162-0.627 0.544-0.611 0.96s0.288 0.779 0.683 0.91l11.316 3.772v11.279c0 0.423 0.266 0.801 0.665 0.942 0.11 0.039 0.223 0.058 0.334 0.058 0.295 0 0.583-0.131 0.776-0.369l5.526-6.802 8.995 8.883c0.189 0.187 0.443 0.288 0.703 0.288 0.083 0 0.167-0.010 0.25-0.032 0.341-0.088 0.61-0.349 0.709-0.686l10-34c0.109-0.37-0.005-0.771-0.293-1.028zM32.26 6.923l-19.449 14.96-8.976-2.992 28.425-11.968zM14 23.492l18.831-14.485-14.389 17.709c-0 0.001-0.001 0.001-0.001 0.002l-4.441 5.466v-8.691zM28.513 35.113l-7.943-7.844 16.066-19.773-8.123 27.617z"/>
</symbol>
<symbol id="icon-user" viewBox="0 0 40 40">
<title>user</title>
<path d="M19 22c-6.065 0-11-4.935-11-11s4.935-11 11-11 11 4.935 11 11-4.935 11-11 11zM19 2c-4.963 0-9 4.037-9 9s4.037 9 9 9c4.963 0 9-4.037 9-9s-4.037-9-9-9z"/>
<path d="M35 40h-32c-1.654 0-3-1.346-3-3 0-0.136 0.028-3.371 2.45-6.6 1.41-1.88 3.34-3.373 5.738-4.439 2.928-1.301 6.566-1.961 10.812-1.961s7.884 0.66 10.812 1.961c2.397 1.065 4.328 2.559 5.738 4.439 2.422 3.229 2.45 6.464 2.45 6.6 0 1.654-1.346 3-3 3zM19 26c-6.973 0-12.12 1.906-14.883 5.511-2.071 2.702-2.117 5.465-2.117 5.493 0 0.547 0.449 0.996 1 0.996h32c0.551 0 1-0.449 1-1-0-0.024-0.046-2.786-2.117-5.489-2.763-3.606-7.909-5.511-14.883-5.511z"/>
</symbol>
<symbol id="icon-bubble" viewBox="0 0 40 40">
<title>bubble</title>
<path d="M1 38c-0.449 0-0.844-0.3-0.964-0.733s0.064-0.893 0.449-1.124c3.382-2.029 4.785-4.977 5.282-6.358-3.675-2.814-5.768-6.709-5.768-10.785 0-2.059 0.517-4.053 1.536-5.927 0.973-1.789 2.36-3.391 4.122-4.762 3.574-2.78 8.313-4.311 13.342-4.311s9.767 1.531 13.342 4.311c1.762 1.371 3.149 2.973 4.122 4.762 1.019 1.874 1.536 3.868 1.536 5.927s-0.517 4.053-1.536 5.927c-0.973 1.789-2.36 3.391-4.122 4.762-3.574 2.78-8.313 4.311-13.342 4.311-2.067 0-4.094-0.259-6.033-0.77-0.858 0.572-2.463 1.586-4.378 2.539-2.975 1.48-5.528 2.231-7.589 2.231zM19 6c-9.374 0-17 5.832-17 13 0 3.631 2.009 7.124 5.512 9.585 0.344 0.241 0.5 0.672 0.391 1.077-0.234 0.872-1.030 3.266-3.159 5.576 2.604-0.912 5.407-2.493 7.478-3.917 0.246-0.169 0.555-0.22 0.842-0.138 1.897 0.543 3.894 0.818 5.937 0.818 9.374 0 17-5.832 17-13s-7.626-13-17-13z"/>
</symbol>
<symbol id="icon-beaker" viewBox="0 0 40 40">
<title>beaker</title>
<path d="M33.069 31.489l-9.069-16.743v-9.545c1.206-0.491 2-1.217 2-2.201 0-2.072-3.516-3-7-3s-7 0.928-7 3c0 0.984 0.794 1.71 2 2.201v9.545l-9.069 16.743c-1.188 2.193-1.302 4.309-0.321 5.956s2.895 2.555 5.39 2.555h18c2.495 0 4.409-0.907 5.39-2.555s0.867-3.763-0.321-5.956zM19 2c2.764 0 4.44 0.63 4.909 1-0.47 0.37-2.145 1-4.909 1s-4.44-0.63-4.909-1c0.47-0.37 2.145-1 4.909-1zM19 6c1.028 0 2.058-0.081 3-0.248v9.244c-0 0.035 0.001 0.070 0.005 0.105 0.001 0.005 0.002 0.011 0.002 0.016 0.003 0.027 0.007 0.054 0.012 0.081 0.003 0.017 0.008 0.033 0.012 0.049 0.004 0.015 0.007 0.030 0.012 0.046 0.008 0.028 0.018 0.055 0.029 0.081 0.001 0.004 0.002 0.007 0.004 0.011 0.014 0.033 0.029 0.065 0.046 0.096l6.781 12.519c-1.451-0.026-2.443-0.642-3.746-1.758-0.837-0.717-1.925-1.608-3.161-2.371-0.069-2.145-1.835-3.869-3.997-3.869-1.516 0-2.839 0.848-3.517 2.095-0.86 0.109-1.703 0.311-2.514 0.6l3.908-7.215c0.017-0.031 0.032-0.062 0.046-0.095 0.002-0.005 0.004-0.011 0.006-0.016 0.010-0.025 0.019-0.050 0.027-0.076 0.005-0.016 0.008-0.032 0.012-0.049 0.004-0.015 0.008-0.030 0.011-0.046 0.006-0.028 0.010-0.056 0.013-0.083 0.001-0.004 0.001-0.009 0.002-0.013 0.004-0.035 0.005-0.071 0.005-0.106v-9.243c0.942 0.167 1.972 0.248 3 0.248zM18 22c1.103 0 2 0.897 2 2s-0.897 2-2 2-2-0.897-2-2 0.897-2 2-2zM31.672 36.422c-0.606 1.018-1.91 1.578-3.672 1.578h-18c-1.762 0-3.065-0.56-3.672-1.578s-0.478-2.431 0.361-3.98l3.604-6.653c1.12-0.78 2.383-1.319 3.712-1.588 0.105 2.113 1.857 3.799 3.995 3.799 1.506 0 2.819-0.836 3.501-2.069 0.898 0.607 1.706 1.273 2.354 1.828 1.614 1.383 3.038 2.241 5.144 2.241 0.319 0 0.638-0.022 0.952-0.065l1.358 2.507c0.839 1.549 0.967 2.962 0.361 3.98z"/>
<path d="M13 30c-1.654 0-3 1.346-3 3s1.346 3 3 3 3-1.346 3-3-1.346-3-3-3zM13 34c-0.551 0-1-0.449-1-1s0.449-1 1-1 1 0.449 1 1-0.449 1-1 1z"/>
<path d="M19 30c-0.263 0-0.521 0.107-0.707 0.293s-0.293 0.444-0.293 0.707 0.107 0.521 0.293 0.707c0.186 0.186 0.444 0.293 0.707 0.293s0.521-0.107 0.707-0.293c0.186-0.186 0.293-0.444 0.293-0.707s-0.107-0.521-0.293-0.707c-0.186-0.186-0.444-0.293-0.707-0.293z"/>
</symbol>
<symbol id="icon-bullhorn" viewBox="0 0 40 40">
<title>bullhorn</title>
<path d="M38.777 6.199c-1.157-3.47-2.692-4.199-3.777-4.199-0.023 0-0.046 0-0.069 0.001-1.106 0.023-3.071 0.599-6.016 1.461-6.168 1.807-15.489 4.538-24.915 4.538-2.28 0-4 3.009-4 7s1.72 7 4 7c0.738 0 1.475 0.017 2.21 0.048l3.332 13.256c0.38 1.512 1.899 2.696 3.457 2.696h2.625c0.866 0 1.601-0.361 2.016-0.989s0.459-1.446 0.12-2.243l-5.153-12.095c6.272 0.925 12.043 2.615 16.308 3.864 2.944 0.863 4.909 1.438 6.016 1.461 0.023 0.001 0.046 0.001 0.069 0.001 1.085 0 2.62-0.728 3.777-4.199 0.789-2.366 1.223-5.491 1.223-8.801s-0.434-6.436-1.223-8.801zM32 15c0-1.026 0.044-2.030 0.128-2.993 1.027 0.103 1.872 1.431 1.872 2.993s-0.845 2.89-1.872 2.993c-0.084-0.963-0.128-1.967-0.128-2.993zM2 15c0-3.052 1.185-5 2-5 2.27 0 4.528-0.152 6.735-0.408-0.474 1.515-0.735 3.395-0.735 5.408s0.261 3.893 0.735 5.408c-2.207-0.256-4.465-0.408-6.735-0.408-0.815 0-2-1.948-2-5zM15.921 35.552c0.082 0.193 0.075 0.321 0.052 0.356s-0.139 0.092-0.348 0.092h-2.625c-0.639 0-1.362-0.564-1.518-1.183l-3.177-12.638c0.67 0.054 1.337 0.119 2.001 0.194l5.615 13.179zM12.978 20.705c-0.609-1.374-0.978-3.496-0.978-5.705 0-2.243 0.361-4.325 0.977-5.705 6.369-0.945 12.191-2.651 16.501-3.913 0.83-0.243 1.622-0.475 2.341-0.678-0.206 0.43-0.406 0.925-0.596 1.494-0.789 2.366-1.223 5.491-1.223 8.801s0.434 6.436 1.223 8.801c0.19 0.569 0.389 1.064 0.596 1.494-0.719-0.202-1.511-0.434-2.341-0.678-4.309-1.262-10.131-2.968-16.499-3.913zM36.88 23.169c-0.746 2.239-1.556 2.831-1.88 2.831s-1.133-0.592-1.88-2.831c-0.313-0.94-0.566-2.019-0.751-3.191 0.972-0.112 1.887-0.662 2.552-1.549 0.696-0.928 1.079-2.145 1.079-3.429s-0.383-2.501-1.079-3.428c-0.665-0.887-1.58-1.437-2.552-1.549 0.185-1.173 0.437-2.251 0.751-3.191 0.746-2.239 1.556-2.831 1.88-2.831s1.133 0.592 1.88 2.831c0.722 2.167 1.12 5.068 1.12 8.169s-0.398 6.002-1.12 8.169z"/>
</symbol>
<symbol id="icon-refresh" viewBox="0 0 40 40">
<title>refresh</title>
<path d="M20 36c-4.274 0-8.292-1.664-11.314-4.686s-4.686-7.040-4.686-11.314 1.664-8.292 4.686-11.314c3.022-3.022 7.040-4.686 11.314-4.686s8.292 1.664 11.314 4.686c2.925 2.925 4.578 6.784 4.681 10.905l2.298-2.298c0.391-0.391 1.024-0.391 1.414 0s0.391 1.024 0 1.414l-4 4c-0.286 0.286-0.716 0.372-1.090 0.217s-0.617-0.519-0.617-0.924v-2c0-7.72-6.28-14-14-14s-14 6.28-14 14c0 7.72 6.28 14 14 14 5.205 0 9.951-2.861 12.386-7.467 0.258-0.488 0.863-0.675 1.351-0.417s0.675 0.863 0.417 1.351c-2.782 5.263-8.206 8.533-14.154 8.533z"/>
</symbol>
<symbol id="icon-share" viewBox="0 0 40 40">
<title>share</title>
<path d="M32 24c-2.769 0-5.213 1.414-6.65 3.557l-9.804-4.902c0.293-0.831 0.454-1.725 0.454-2.655s-0.16-1.824-0.454-2.655l9.804-4.902c1.437 2.144 3.881 3.558 6.65 3.558 4.411 0 8-3.589 8-8s-3.589-8-8-8-8 3.589-8 8c0 0.93 0.16 1.824 0.453 2.655l-9.804 4.902c-1.437-2.143-3.881-3.557-6.649-3.557-4.411 0-8 3.589-8 8s3.589 8 8 8c2.769 0 5.213-1.414 6.65-3.557l9.804 4.902c-0.293 0.831-0.454 1.725-0.454 2.655 0 4.411 3.589 8 8 8s8-3.589 8-8-3.589-8-8-8zM32 2c3.308 0 6 2.692 6 6s-2.692 6-6 6-6-2.692-6-6 2.692-6 6-6zM8 26c-3.308 0-6-2.692-6-6s2.692-6 6-6 6 2.692 6 6-2.692 6-6 6zM32 38c-3.308 0-6-2.692-6-6s2.692-6 6-6 6 2.692 6 6-2.692 6-6 6z"/>
</symbol>
<symbol id="icon-totop" viewBox="0 0 52 52">
<title>to top</title>
<path d="M51 36.7c0 .4-.2.8-.5 1.2l-2.5 2.6c-.3.3-.7.5-1.2.5-.4 0-.8-.2-1.2-.5l-19.6-20.3-19.7 20.3c-.3.3-.7.5-1.1.5-.4 0-.8-.2-1.2-.5l-2.5-2.6c-.3-.3-.5-.7-.5-1.2s.2-.8.5-1.2l23.3-24c.3-.3.7-.5 1.2-.5.4 0 .8.2 1.2.5l23.3 24c.3.4.5.8.5 1.2z"/>
</symbol>
<symbol id="icon-codepen" viewBox="0 0 32 32">
<title>codepen</title>
<path d="M3.857 20.875l10.768 7.179v-6.411l-5.964-3.982zM2.75 18.304l3.446-2.304-3.446-2.304v4.607zM17.375 28.054l10.768-7.179-4.804-3.214-5.964 3.982v6.411zM16 19.25l4.857-3.25-4.857-3.25-4.857 3.25zM8.661 14.339l5.964-3.982v-6.411l-10.768 7.179zM25.804 16l3.446 2.304v-4.607zM23.339 14.339l4.804-3.214-10.768-7.179v6.411zM32 11.125v9.75q0 0.732-0.607 1.143l-14.625 9.75q-0.375 0.232-0.768 0.232t-0.768-0.232l-14.625-9.75q-0.607-0.411-0.607-1.143v-9.75q0-0.732 0.607-1.143l14.625-9.75q0.375-0.232 0.768-0.232t0.768 0.232l14.625 9.75q0.607 0.411 0.607 1.143z"/>
</symbol>
<symbol id="icon-google-plus" viewBox="0 0 512 512">
<title>google-plus</title>
<path d="M261.1 219.4v87.8h145.2c-5.9 37.7-43.9 110.4-145.2 110.4-87.4 0-158.7-72.4-158.7-161.6s71.3-161.6 158.7-161.6c49.7 0 83 21.2 102 39.5l69.5-66.9c-44.6-41.8-102.4-67-171.5-67-141.5 0-256 114.5-256 256s114.5 256 256 256c147.7 0 245.8-103.9 245.8-250.1 0-16.8-1.8-29.6-4-42.4l-241.8-0.1z"/>
</symbol>
<symbol id="icon-facebook" viewBox="0 0 32 32">
<title>facebook</title>
<path d="M19 6h5v-6h-5c-3.86 0-7 3.14-7 7v3h-4v6h4v16h6v-16h5l1-6h-6v-3c0-0.542 0.458-1 1-1z"/>
</symbol>
<symbol id="icon-twitter" viewBox="0 0 32 32">
<title>twitter</title>
<path d="M32 7.075c-1.175 0.525-2.444 0.875-3.769 1.031 1.356-0.813 2.394-2.1 2.887-3.631-1.269 0.75-2.675 1.3-4.169 1.594-1.2-1.275-2.906-2.069-4.794-2.069-3.625 0-6.563 2.938-6.563 6.563 0 0.512 0.056 1.012 0.169 1.494-5.456-0.275-10.294-2.888-13.531-6.862-0.563 0.969-0.887 2.1-0.887 3.3 0 2.275 1.156 4.287 2.919 5.463-1.075-0.031-2.087-0.331-2.975-0.819 0 0.025 0 0.056 0 0.081 0 3.181 2.263 5.838 5.269 6.437-0.55 0.15-1.131 0.231-1.731 0.231-0.425 0-0.831-0.044-1.237-0.119 0.838 2.606 3.263 4.506 6.131 4.563-2.25 1.762-5.075 2.813-8.156 2.813-0.531 0-1.050-0.031-1.569-0.094 2.913 1.869 6.362 2.95 10.069 2.95 12.075 0 18.681-10.006 18.681-18.681 0-0.287-0.006-0.569-0.019-0.85 1.281-0.919 2.394-2.075 3.275-3.394z"/>
</symbol>
<symbol id="icon-linkedin" viewBox="0 0 32 32">
<title>linkedin</title>
<path d="M12 12h5.535v2.837h0.079c0.77-1.381 2.655-2.837 5.464-2.837 5.842 0 6.922 3.637 6.922 8.367v9.633h-5.769v-8.54c0-2.037-0.042-4.657-3.001-4.657-3.005 0-3.463 2.218-3.463 4.509v8.688h-5.767v-18z"/>
<path d="M2 12h6v18h-6v-18z"/>
<path d="M8 7c0 1.657-1.343 3-3 3s-3-1.343-3-3c0-1.657 1.343-3 3-3s3 1.343 3 3z"/>
</symbol>
<symbol id="icon-spotify" viewBox="0 0 512 512">
<title>spotify</title>
<path d="M256 0c-140.8 0-256 115.2-256 256s115.2 256 256 256 256-115.2 256-256-113.9-256-256-256zM373.8 369.9c-5.1 7.7-14.1 10.2-21.8 5.1-60.2-37.1-135.7-44.8-225.3-24.3-9 2.6-16.6-3.8-19.2-11.5-2.6-9 3.8-16.6 11.5-19.2 97.3-21.8 181.8-12.8 248.3 28.2 9 3.8 10.3 14 6.5 21.7zM404.5 299.5c-6.4 9-17.9 12.8-26.9 6.4-69.1-42.2-174.1-55-254.7-29.4-10.2 2.6-21.8-2.6-24.3-12.8-2.6-10.2 2.6-21.8 12.8-24.3 93.4-28.2 208.6-14.1 288 34.6 7.6 3.8 11.5 16.6 5.1 25.5zM407 227.8c-81.9-48.6-218.9-53.8-297-29.4-12.8 3.8-25.6-3.8-29.4-15.4-3.8-12.8 3.8-25.6 15.4-29.4 90.9-26.9 240.6-21.8 335.4 34.6 11.5 6.4 15.4 21.8 9 33.3-6.5 8.9-21.8 12.7-33.4 6.3z"/>
</symbol>
<symbol id="icon-quote" viewBox="0 0 110 75">
<title>quote</title>
<path d="M24.1,27.3c13.3,0,24,10.7,24,23.9c0,13.2-10.8,23.9-24,23.9s-24-10.7-24-23.9L0,47.7C0,21.4,21.5,0,48.1,0v13.6c-9.2,0-17.8,3.5-24.3,10c-1.2,1.2-2.4,2.6-3.4,3.9C21.6,27.4,22.9,27.3,24.1,27.3z M86,27.3c13.3,0,24,10.7,24,23.9C110,64.3,99.2,75,86,75s-24-10.7-24-23.9l-0.1-3.4C61.8,21.4,83.3,0,109.9,0v13.6c-9.2,0-17.8,3.5-24.3,10c-1.2,1.2-2.4,2.6-3.4,3.9C83.4,27.4,84.7,27.3,86,27.3L86,27.3z"/>
</symbol>
</defs>
</svg>
