<?xml version="1.0" standalone="no"?>
<!DOCTYPE svg PUBLIC "-//W3C//DTD SVG 20010904//EN"
 "http://www.w3.org/TR/2001/REC-SVG-20010904/DTD/svg10.dtd">
<svg version="1.0" xmlns="http://www.w3.org/2000/svg"
 width="490.000000pt" height="490.000000pt" viewBox="0 0 490.000000 490.000000"
 preserveAspectRatio="xMidYMid meet">
<metadata>
Created by potrace 1.11, written by Peter Selinger 2001-2013
</metadata>
<g transform="translate(0.000000,490.000000) scale(0.100000,-0.100000)"
fill="#000000" stroke="none">
<path d="M1829 4596 c-2 -2 -25 -6 -51 -9 -26 -3 -79 -19 -117 -35 -141 -59
-243 -153 -374 -343 -33 -46 -195 -278 -360 -516 -166 -238 -351 -505 -412
-593 -60 -88 -134 -194 -163 -236 -136 -194 -207 -381 -228 -604 -12 -132 -11
-303 3 -374 26 -140 117 -271 253 -365 53 -36 262 -142 440 -224 104 -47 176
-80 379 -173 111 -52 205 -94 206 -94 2 0 43 -18 92 -41 48 -22 106 -49 128
-59 47 -21 486 -216 530 -235 56 -24 100 -43 150 -65 28 -12 64 -28 80 -35 17
-7 50 -22 75 -33 152 -68 507 -213 563 -231 92 -28 147 -36 252 -35 234 3 447
121 581 322 40 59 48 77 169 362 48 113 96 223 106 245 10 22 48 110 84 195
37 85 126 290 197 455 197 454 323 763 342 835 32 124 38 228 22 408 -22 243
-145 419 -387 551 -45 24 -447 193 -599 251 -62 24 -983 392 -1100 440 -263
107 -488 192 -551 206 -13 3 -42 10 -64 15 -41 9 -239 22 -246 15z m123 -602
c84 -21 254 -82 325 -115 l63 -30 -149 -222 c-158 -236 -217 -331 -243 -387
-24 -53 -36 -133 -36 -247 0 -107 10 -167 34 -194 17 -19 95 -58 196 -99 40
-16 87 -34 103 -41 17 -7 35 -13 40 -15 6 -1 31 -12 57 -23 56 -25 58 -14 -30
-171 -207 -370 -515 -834 -568 -854 -28 -11 -70 -6 -133 15 -82 26 -237 93
-320 137 -36 19 -79 42 -94 50 -16 8 -26 19 -24 26 3 6 62 99 132 206 70 107
137 211 150 230 121 186 161 269 169 345 3 33 8 71 11 85 15 74 -1 216 -28
248 -24 29 -87 62 -228 116 -79 31 -152 61 -161 66 -10 6 -24 10 -32 10 -8 0
-18 4 -21 10 -5 8 166 282 212 340 6 8 51 69 99 135 112 156 221 291 285 355
57 57 61 57 191 24z m1073 -419 c195 -63 513 -195 760 -315 180 -88 170 -64
92 -221 -53 -107 -223 -412 -338 -606 -10 -18 -27 -48 -38 -65 -10 -18 -49
-85 -86 -148 -85 -146 -122 -218 -129 -255 -3 -17 -8 -43 -11 -60 -12 -52 -9
-158 5 -224 15 -72 24 -80 148 -131 39 -17 106 -44 147 -61 41 -17 75 -37 75
-44 0 -39 -199 -399 -268 -483 -45 -56 -64 -62 -132 -45 -179 47 -789 306
-916 390 l-23 14 73 142 c79 154 92 178 204 372 94 164 80 139 258 437 83 139
165 282 182 318 41 85 57 214 40 328 -12 86 -13 89 -26 105 -17 20 -130 75
-282 137 -68 27 -128 54 -132 58 -18 18 136 257 219 340 59 59 50 58 178 17z"/>
</g>
</svg>
