<?xml version="1.0" standalone="no"?>
<!DOCTYPE svg PUBLIC "-//W3C//DTD SVG 20010904//EN"
 "http://www.w3.org/TR/2001/REC-SVG-20010904/DTD/svg10.dtd">
<svg version="1.0" xmlns="http://www.w3.org/2000/svg"
 width="980.000000pt" height="980.000000pt" viewBox="0 0 980.000000 980.000000"
 preserveAspectRatio="xMidYMid meet">
<metadata>
Created by potrace 1.11, written by Peter Selinger 2001-2013
</metadata>
<g transform="translate(0.000000,980.000000) scale(0.100000,-0.100000)"
fill="#000000" stroke="none">
<path d="M3757 9194 c-1 -1 -36 -4 -77 -7 -41 -4 -85 -9 -96 -11 -12 -2 -37
-7 -55 -10 -72 -11 -268 -82 -281 -101 -4 -5 -8 -6 -8 -2 0 5 -13 -1 -29 -12
-16 -12 -32 -21 -36 -21 -11 0 -128 -82 -185 -129 -67 -56 -166 -155 -201
-202 -15 -19 -35 -43 -46 -54 -15 -16 -84 -113 -203 -285 -5 -8 -40 -58 -78
-110 -37 -52 -76 -109 -86 -125 -11 -17 -24 -35 -30 -42 -6 -6 -47 -64 -91
-128 -44 -63 -120 -173 -170 -243 -49 -70 -103 -148 -120 -172 -34 -51 -36
-53 -68 -95 -12 -16 -43 -60 -67 -97 -25 -38 -48 -68 -52 -68 -5 0 -8 -6 -8
-13 0 -8 -9 -25 -21 -38 -12 -13 -37 -49 -57 -79 -20 -30 -40 -59 -45 -65 -4
-5 -43 -62 -87 -125 -44 -63 -84 -122 -90 -130 -6 -8 -42 -60 -80 -115 -38
-55 -74 -105 -80 -112 -5 -7 -10 -16 -10 -22 0 -5 -3 -11 -7 -13 -13 -5 -65
-78 -56 -78 4 0 3 -4 -3 -8 -6 -4 -63 -83 -127 -177 -63 -93 -122 -178 -131
-187 -9 -10 -16 -20 -16 -23 0 -5 -84 -130 -107 -160 -5 -5 -34 -48 -65 -95
-31 -47 -95 -141 -142 -210 -47 -69 -86 -131 -86 -137 0 -7 -3 -13 -7 -13 -5
0 -13 -10 -19 -23 -108 -218 -107 -215 -143 -315 -17 -46 -29 -88 -25 -93 3
-5 1 -9 -5 -9 -8 0 -23 -48 -35 -110 -1 -8 -5 -22 -9 -30 -7 -17 -37 -167 -36
-178 1 -4 0 -9 -1 -12 -4 -12 -10 -48 -14 -90 -3 -25 -7 -61 -10 -80 -19 -120
-27 -644 -12 -725 17 -90 28 -133 52 -199 42 -117 122 -251 198 -331 22 -24
48 -52 57 -62 77 -87 265 -220 429 -304 47 -24 88 -47 91 -52 3 -5 9 -8 13 -8
7 2 63 -24 256 -116 69 -33 157 -75 195 -93 131 -61 210 -98 300 -141 50 -23
92 -43 95 -44 18 -6 107 -46 258 -116 46 -22 85 -39 87 -39 2 0 51 -23 110
-50 59 -28 108 -50 110 -50 2 0 37 -15 77 -34 68 -32 100 -47 238 -109 205
-93 292 -132 340 -155 30 -14 57 -26 60 -27 3 -1 25 -11 50 -22 25 -12 102
-46 172 -77 70 -30 135 -59 145 -64 26 -13 96 -44 183 -82 41 -18 79 -37 85
-41 5 -5 14 -9 21 -9 7 0 46 -16 88 -35 42 -20 78 -36 81 -35 3 0 37 -16 75
-35 39 -19 70 -33 70 -30 0 4 10 -1 22 -9 12 -9 30 -16 40 -16 10 0 18 -4 18
-10 0 -5 9 -10 20 -10 11 0 20 -5 20 -12 0 -6 3 -8 6 -5 4 3 16 1 28 -5 11 -7
23 -13 26 -13 7 -2 34 -14 250 -110 107 -47 200 -88 205 -89 11 -3 65 -27 143
-62 29 -13 55 -24 58 -24 3 0 35 -14 72 -31 36 -17 71 -32 77 -33 5 -1 15 -4
20 -8 6 -3 55 -25 110 -48 55 -23 118 -50 141 -61 22 -10 43 -19 46 -19 3 0
23 -8 44 -17 22 -9 42 -17 45 -17 3 -1 28 -11 55 -23 42 -18 95 -40 299 -124
17 -7 32 -13 35 -14 3 0 34 -10 70 -22 112 -36 189 -54 290 -69 74 -11 320
-13 320 -2 0 5 7 5 17 -1 9 -5 26 -5 38 -1 12 5 42 11 66 14 42 5 167 36 199
49 8 3 32 11 53 17 22 7 51 18 65 26 15 8 33 14 40 14 6 0 12 5 12 10 0 6 3 9
8 9 12 -3 72 25 72 33 0 4 7 8 15 8 8 0 15 5 15 10 0 6 3 9 8 8 4 -1 21 6 37
17 211 136 409 360 520 590 59 122 215 486 215 502 0 7 5 13 10 13 6 0 10 6
10 13 0 13 51 139 60 147 3 3 6 12 8 20 2 8 12 35 23 60 28 62 36 82 120 275
41 94 73 173 71 178 -1 4 2 7 8 7 5 0 10 7 10 15 0 17 41 107 53 116 5 3 7 8
6 10 -2 2 5 24 16 49 10 25 19 47 20 50 4 14 29 71 55 128 17 35 30 67 30 71
0 4 11 29 24 57 34 71 66 142 66 147 0 2 14 35 32 73 17 38 33 74 34 80 1 6
16 41 33 78 17 37 31 69 31 71 0 3 11 28 24 57 14 29 66 150 117 268 50 118
102 238 114 265 12 28 77 181 145 340 67 160 128 304 135 320 7 17 23 55 35
85 31 76 50 121 60 145 62 138 151 412 165 506 3 24 8 51 10 59 19 68 25 391
12 540 -13 140 -16 166 -23 205 -3 22 -7 45 -8 50 -1 6 -5 16 -9 23 -5 6 -6
12 -3 12 3 0 -2 24 -11 53 -8 28 -16 57 -18 62 -3 16 -16 47 -39 95 -11 25
-20 48 -18 53 1 4 -3 7 -8 7 -6 0 -10 6 -10 14 0 7 -18 41 -40 74 -22 33 -40
63 -40 66 0 4 -10 17 -22 30 -13 13 -30 34 -38 47 -44 68 -291 285 -350 307
-8 3 -17 8 -20 12 -21 27 -223 125 -440 215 -102 42 -199 83 -217 91 -17 8
-33 14 -36 14 -2 0 -22 8 -43 17 -22 9 -41 17 -44 18 -3 1 -16 6 -30 12 -14 6
-50 21 -80 33 -30 12 -66 27 -80 33 -14 6 -27 11 -30 11 -13 3 -126 50 -130
55 -3 3 -12 7 -20 9 -8 1 -24 7 -35 12 -28 13 -318 131 -330 134 -5 2 -21 8
-35 13 -125 52 -156 65 -165 67 -5 2 -22 8 -37 14 -28 11 -250 102 -303 123
-16 7 -34 13 -40 15 -5 1 -86 33 -180 71 -93 39 -354 143 -580 232 -225 90
-428 171 -450 181 -22 9 -51 21 -65 25 -28 8 -86 32 -112 46 -10 5 -25 9 -33
9 -8 0 -15 5 -15 11 0 5 -3 8 -8 5 -4 -2 -25 4 -47 14 -22 11 -44 19 -48 20
-5 0 -23 6 -40 14 -42 18 -160 65 -177 71 -3 1 -18 7 -35 14 -16 7 -93 37
-170 68 -77 30 -151 60 -165 66 -14 6 -27 11 -30 12 -3 1 -14 5 -25 9 -11 4
-33 13 -50 18 -16 6 -43 17 -60 23 -52 21 -262 83 -312 92 -41 7 -68 12 -93
18 -14 3 -43 8 -65 10 -22 2 -62 7 -88 10 -43 6 -196 12 -200 9z m41 -1179
c41 -8 122 -29 180 -46 59 -17 114 -33 122 -35 16 -3 205 -70 230 -81 8 -3 17
-7 20 -8 48 -17 245 -99 286 -120 36 -18 41 -24 31 -41 -12 -22 -217 -334
-229 -349 -5 -5 -40 -58 -78 -117 -38 -59 -76 -115 -85 -125 -8 -10 -15 -22
-14 -27 0 -5 -3 -12 -8 -15 -10 -7 -154 -225 -173 -261 -7 -14 -22 -35 -33
-47 -11 -13 -16 -23 -11 -23 5 0 4 -4 -1 -8 -11 -7 -72 -108 -117 -192 -52
-96 -79 -190 -55 -190 7 0 6 -4 -2 -9 -8 -5 -16 -18 -17 -28 -1 -10 -6 -45
-10 -78 -8 -57 -11 -305 -5 -390 2 -22 10 -74 19 -115 13 -66 20 -80 56 -114
24 -22 90 -62 161 -95 116 -56 204 -95 215 -97 3 0 14 -4 25 -9 11 -4 54 -21
95 -37 41 -16 89 -35 105 -42 17 -8 40 -17 53 -21 13 -4 56 -22 97 -40 40 -19
76 -31 79 -28 3 4 6 1 6 -5 0 -7 7 -12 15 -12 9 0 18 -6 21 -13 6 -18 -79
-179 -266 -502 -24 -42 -80 -135 -99 -165 -8 -14 -16 -27 -16 -30 0 -3 -8 -16
-17 -30 -9 -14 -22 -37 -29 -52 -7 -16 -16 -28 -21 -28 -4 0 -8 -6 -8 -13 0
-8 -9 -24 -20 -37 -11 -13 -20 -27 -20 -32 0 -5 -5 -14 -10 -21 -23 -26 -98
-147 -92 -147 4 0 3 -4 -3 -8 -5 -4 -15 -16 -22 -27 -7 -11 -35 -56 -63 -100
-28 -44 -57 -89 -63 -100 -7 -11 -14 -22 -17 -25 -3 -3 -14 -18 -24 -35 -11
-16 -23 -34 -28 -40 -4 -5 -46 -67 -92 -137 -47 -71 -93 -139 -103 -152 -10
-13 -25 -34 -33 -46 -8 -13 -23 -32 -32 -42 -10 -10 -18 -22 -18 -28 0 -5 -4
-10 -8 -10 -4 0 -15 -12 -24 -27 -10 -16 -29 -41 -44 -58 -14 -16 -36 -41 -48
-55 -52 -60 -84 -79 -129 -75 -95 10 -267 55 -319 85 -10 6 -25 10 -33 10 -8
0 -23 4 -33 10 -9 5 -33 16 -52 24 -19 8 -66 28 -103 45 -38 17 -70 31 -73 31
-13 0 -425 210 -434 221 -3 3 -15 11 -27 18 l-22 11 22 38 c12 20 25 42 30 47
4 6 23 35 42 65 19 30 38 60 42 65 5 6 37 55 72 110 36 55 67 102 70 105 3 3
15 21 25 40 11 19 22 37 26 40 6 5 220 338 260 405 14 22 28 45 33 50 17 21
147 237 147 245 0 5 4 10 8 12 16 6 122 234 127 271 3 20 7 52 9 70 3 17 8 59
11 92 4 33 8 71 11 85 2 14 6 52 10 85 3 33 7 66 9 73 3 6 0 12 -6 12 -6 0 -7
6 -3 12 15 23 -5 188 -26 229 -5 9 -11 29 -14 44 -7 37 -66 97 -124 126 -26
13 -49 26 -52 30 -5 6 -266 119 -276 119 -3 0 -20 6 -37 14 -18 7 -59 24 -92
36 -85 31 -95 35 -138 54 -21 9 -42 16 -47 16 -5 0 -43 16 -84 35 l-76 35 25
37 c14 21 28 43 32 49 8 9 22 34 47 78 12 21 24 39 42 59 5 7 13 19 17 27 14
27 86 139 97 150 11 10 85 126 92 143 4 9 12 17 18 17 5 0 10 7 10 15 0 8 5
15 10 15 6 0 10 6 10 13 0 6 9 23 20 37 12 14 41 55 66 91 24 36 54 76 67 90
12 13 22 26 22 29 -1 3 32 50 72 105 40 55 81 110 90 123 9 13 27 35 40 50 13
15 23 30 23 34 0 4 8 15 18 25 10 10 56 68 103 128 91 120 92 121 200 244 170
196 185 203 367 166z m2085 -809 c9 0 17 -4 17 -8 0 -4 3 -7 8 -6 8 3 98 -20
127 -32 11 -5 52 -18 90 -31 39 -12 75 -24 80 -28 6 -3 15 -6 20 -7 13 -3 172
-62 210 -79 17 -8 53 -21 80 -30 28 -10 68 -25 90 -35 22 -9 60 -25 85 -35 25
-10 63 -26 85 -36 22 -9 76 -31 120 -49 44 -18 113 -48 153 -66 41 -19 77 -34
80 -34 4 0 36 -14 72 -31 36 -17 74 -35 85 -39 141 -57 583 -280 596 -301 3
-6 1 -23 -6 -38 -97 -200 -118 -247 -116 -250 1 -2 -1 -7 -6 -10 -5 -3 -24
-37 -43 -76 -19 -38 -39 -73 -45 -77 -5 -4 -7 -8 -2 -8 4 0 -4 -18 -18 -40
-14 -22 -22 -40 -19 -40 4 0 0 -7 -7 -17 -14 -16 -51 -83 -87 -153 -9 -19 -20
-37 -23 -40 -3 -3 -27 -45 -53 -94 -50 -92 -99 -180 -116 -206 -5 -8 -18 -31
-28 -50 -10 -19 -49 -87 -87 -150 -38 -63 -106 -180 -152 -260 -97 -166 -89
-153 -144 -245 -23 -38 -55 -95 -72 -125 -16 -30 -34 -61 -40 -68 -15 -19 -67
-114 -74 -134 -3 -10 -10 -18 -16 -18 -6 0 -8 -3 -4 -6 3 -4 -9 -31 -28 -60
-19 -30 -32 -54 -28 -54 3 0 -1 -8 -9 -17 -19 -22 -68 -130 -74 -160 -7 -39
-13 -67 -18 -90 -22 -90 -28 -132 -31 -246 -1 -59 1 -126 5 -150 5 -23 11 -55
14 -72 2 -16 8 -41 11 -55 3 -14 8 -38 10 -54 6 -38 29 -71 62 -90 86 -47 184
-91 348 -156 71 -28 134 -55 140 -58 5 -4 15 -7 21 -8 6 -1 31 -11 55 -21 24
-11 47 -19 50 -19 4 1 16 -7 26 -17 11 -9 23 -14 26 -10 18 17 4 -42 -22 -94
-182 -366 -243 -485 -257 -500 -6 -6 -17 -25 -24 -42 -7 -17 -16 -31 -21 -31
-5 0 -9 -5 -9 -11 0 -13 -109 -194 -132 -219 -10 -11 -18 -24 -18 -30 0 -5 -4
-10 -9 -10 -5 0 -12 -9 -16 -19 -10 -33 -133 -151 -157 -152 -36 -2 -62 2 -74
12 -6 5 -13 6 -17 3 -3 -3 -52 9 -109 27 -57 18 -107 33 -113 35 -16 3 -128
44 -150 55 -11 5 -45 18 -75 28 -30 11 -102 38 -160 60 -58 22 -111 41 -117
41 -7 0 -13 4 -13 9 0 5 -12 12 -27 16 -16 3 -41 13 -58 20 -16 7 -97 42 -180
76 -82 35 -153 67 -156 72 -3 5 -8 7 -11 5 -3 -1 -38 12 -79 31 -41 18 -90 40
-109 49 -62 27 -224 102 -245 114 -11 6 -28 15 -37 20 -10 4 -26 12 -35 16
-16 8 -144 76 -198 106 -11 6 -22 14 -25 17 -3 3 -11 8 -17 10 -9 3 -4 23 19
69 17 36 32 67 33 70 1 7 133 267 165 325 15 28 60 111 100 185 40 74 78 138
84 142 6 4 7 8 3 8 -5 0 1 13 12 29 12 16 21 34 21 40 0 6 5 11 10 11 6 0 10
4 10 9 0 9 250 445 321 560 21 34 39 65 39 67 0 3 16 30 35 60 19 30 35 59 35
64 0 6 5 10 10 10 6 0 10 4 10 10 0 5 18 39 40 75 22 36 40 70 40 75 0 6 5 10
10 10 6 0 10 5 10 11 0 6 14 30 30 54 17 24 30 48 30 54 0 6 5 11 12 11 6 0 9
3 5 6 -3 4 7 26 23 50 17 23 30 47 30 53 0 6 4 11 9 11 5 0 11 8 14 18 8 23
40 76 50 80 4 2 5 8 1 13 -3 5 0 9 5 9 6 0 11 7 11 15 0 8 5 15 10 15 6 0 10
5 10 11 0 6 23 49 50 96 28 47 50 89 50 93 0 5 3 10 8 12 4 2 16 21 27 43 11
22 22 42 25 45 16 14 69 153 74 191 4 24 8 55 10 69 26 175 25 453 -2 508 -5
9 -9 32 -11 51 -3 59 -77 123 -216 186 -27 13 -72 33 -100 46 -27 12 -54 24
-60 25 -5 1 -30 11 -55 22 -25 12 -108 46 -185 77 -77 32 -159 66 -182 76 -23
10 -46 19 -51 19 -16 0 -37 31 -26 38 5 4 24 36 43 72 19 36 53 96 77 133 24
37 44 72 44 77 0 6 5 10 10 10 6 0 10 5 10 10 0 6 23 43 50 83 70 100 83 118
98 134 7 7 11 13 8 13 -6 0 10 20 83 103 80 92 138 131 181 120 14 -4 33 -7
43 -7z"/>
</g>
</svg>
