<svg xmlns="http://www.w3.org/2000/svg" width="55" height="55" viewBox="0 0 55 55" xml:space="preserve"><path fill="#333" d="M54.6 27.5c-.1-3.6-.8-7.1-2.3-10.3-1.4-3.2-3.5-6.2-6-8.6-2.5-2.4-5.5-4.4-8.8-5.6-3.2-1.3-6.7-1.9-10.2-1.8-3.3 0-6.8.8-9.9 2.2-3.1 1.4-6 3.4-8.3 5.8-2.4 2.5-4.2 5.4-5.4 8.5-1.2 3.1-1.8 6.5-1.7 9.9 0 3.3.7 6.6 2 9.6s3.3 5.8 5.6 8.1c2.4 2.3 5.2 4.1 8.2 5.3 3 1.2 6.3 1.7 9.5 1.7 3.2-.1 6.4-.8 9.4-2.1 2.9-1.3 5.6-3.2 7.8-5.5s3.9-5 5.1-7.9c.7-1.8 1.2-3.6 1.4-5.5h.2c1.9 0 3.4-1.5 3.4-3.4v-.4zm-5.4 9.1c-1.2 2.8-3 5.4-5.2 7.5-2.2 2.1-4.8 3.8-7.7 4.9-2.8 1.1-5.9 1.6-8.9 1.5-3-.1-6-.7-8.7-1.9-2.7-1.2-5.2-3-7.2-5.1-2-2.1-3.6-4.7-4.7-7.4s-1.6-5.6-1.5-8.6c.1-2.9.7-5.8 1.9-8.4 1.2-2.6 2.8-5 4.9-7 2.1-2 4.5-3.5 7.1-4.5 2.6-1 5.4-1.5 8.2-1.4 2.8.1 5.6.8 8.1 1.9 2.5 1.1 4.8 2.7 6.7 4.7 1.9 2 3.4 4.3 4.3 6.8 1 2.5 1.4 5.2 1.4 7.9v.3c0 1.8 1.3 3.2 3 3.4-.4 1.9-.9 3.7-1.7 5.4z"/></svg>